<svg width="24" height="24" viewBox="0 0 24 24" fill="none" xmlns="http://www.w3.org/2000/svg">
<g clip-path="url(#clip0_1157_5064)">
<path fill-rule="evenodd" clip-rule="evenodd" d="M20.1354 11.0259C19.7601 7.11137 17.1487 3.93924 13.7478 3.11697C13.2291 2.40496 12.6335 2 12 2C11.3665 2 10.7709 2.40496 10.2522 3.11697C6.85133 3.93924 4.23989 7.11137 3.8646 11.0259C2.69087 12.0688 2 13.3467 2 14.7273C2 18.2418 6.47715 21.0909 12 21.0909C17.5228 21.0909 22 18.2418 22 14.7273C22 13.3467 21.3091 12.0688 20.1354 11.0259ZM15.9935 14.4958C15.8802 15.1865 15.6075 15.8437 15.198 16.3984C15.6849 16.7631 16 17.3448 16 18C16 19.1046 15.1046 20 14 20C12.8954 20 12 19.1046 12 18H11.9979C9.98356 18 8.3474 16.4233 8.00752 14.5029C7.95571 14.2108 8.17953 13.9534 8.4334 14.0073C9.45614 14.2252 10.6809 14.3533 11.999 14.3533C13.317 14.3533 14.5429 14.2252 15.5666 14.0073C15.8174 13.9534 16.0412 14.206 15.9935 14.4958ZM9.43142 8.11562C9.49279 8.18964 9.52727 8.29005 9.52727 8.39474V8.4C10.0025 8.54474 10.4 8.99632 10.4 9.62263C10.4 9.72732 10.3655 9.82772 10.3041 9.90175C10.2428 9.97578 10.1595 10.0174 10.0727 10.0174C9.98593 10.0174 9.90269 9.97578 9.84131 9.90175C9.77994 9.82772 9.74545 9.72732 9.74545 9.62263C9.74545 9.42053 9.55956 9.14053 9.2 9.14053C8.84044 9.14053 8.65455 9.42053 8.65455 9.62263C8.65455 9.82474 8.84044 10.1053 9.2 10.1053C9.80436 10.1053 10.4 10.6105 10.4 11.3774C10.4 12.0037 10.0025 12.4558 9.52727 12.6V12.6053C9.52727 12.71 9.49279 12.8104 9.43142 12.8844C9.37004 12.9584 9.2868 13 9.2 13C9.1132 13 9.02996 12.9584 8.96858 12.8844C8.90721 12.8104 8.87273 12.71 8.87273 12.6053V12.6C8.39753 12.4558 8 12.0037 8 11.3774C8 11.2727 8.03448 11.1723 8.09586 11.0982C8.15723 11.0242 8.24047 10.9826 8.32727 10.9826C8.41407 10.9826 8.49731 11.0242 8.55869 11.0982C8.62006 11.1723 8.65455 11.2727 8.65455 11.3774C8.65455 11.5795 8.84044 11.8595 9.2 11.8595C9.55956 11.8595 9.74545 11.5795 9.74545 11.3774C9.74545 11.1753 9.55956 10.8947 9.2 10.8947C8.59564 10.8947 8 10.3895 8 9.62263C8 8.99632 8.39753 8.54474 8.87273 8.4V8.39474C8.87273 8.29005 8.90721 8.18964 8.96858 8.11562C9.02996 8.04159 9.1132 8 9.2 8C9.2868 8 9.37004 8.04159 9.43142 8.11562ZM14.9273 8.39474C14.9273 8.29005 14.8928 8.18964 14.8314 8.11562C14.77 8.04159 14.6868 8 14.6 8C14.5132 8 14.43 8.04159 14.3686 8.11562C14.3072 8.18964 14.2727 8.29005 14.2727 8.39474V8.4C13.7975 8.54474 13.4 8.99632 13.4 9.62263C13.4 10.3895 13.9956 10.8947 14.6 10.8947C14.9596 10.8947 15.1455 11.1753 15.1455 11.3774C15.1455 11.5795 14.9596 11.8595 14.6 11.8595C14.2404 11.8595 14.0545 11.5795 14.0545 11.3774C14.0545 11.2727 14.0201 11.1723 13.9587 11.0982C13.8973 11.0242 13.8141 10.9826 13.7273 10.9826C13.6405 10.9826 13.5572 11.0242 13.4959 11.0982C13.4345 11.1723 13.4 11.2727 13.4 11.3774C13.4 12.0037 13.7975 12.4558 14.2727 12.6V12.6053C14.2727 12.71 14.3072 12.8104 14.3686 12.8844C14.43 12.9584 14.5132 13 14.6 13C14.6868 13 14.77 12.9584 14.8314 12.8844C14.8928 12.8104 14.9273 12.71 14.9273 12.6053V12.6C15.4025 12.4558 15.8 12.0037 15.8 11.3774C15.8 10.6105 15.2044 10.1053 14.6 10.1053C14.2404 10.1053 14.0545 9.82474 14.0545 9.62263C14.0545 9.42053 14.2404 9.14053 14.6 9.14053C14.9596 9.14053 15.1455 9.42053 15.1455 9.62263C15.1455 9.72732 15.1799 9.82772 15.2413 9.90175C15.3027 9.97578 15.3859 10.0174 15.4727 10.0174C15.5595 10.0174 15.6428 9.97578 15.7041 9.90175C15.7655 9.82772 15.8 9.72732 15.8 9.62263C15.8 8.99632 15.4025 8.54474 14.9273 8.4V8.39474ZM6.86696 7.49821C6.65597 7.6911 6.99138 7.89383 7.21724 7.7531C7.85831 7.37519 8.65761 7.18723 9.42446 7.1951C9.72741 7.19411 9.82884 6.88707 9.49749 6.83491C8.84696 6.74142 8.08417 6.83491 7.46474 7.12523C7.23483 7.22561 7.02384 7.35846 6.86696 7.49821ZM16.7331 7.49821C16.9441 7.6911 16.6087 7.89383 16.3829 7.7531C15.7431 7.37519 14.9425 7.18723 14.1756 7.1951C13.8727 7.19411 13.7713 6.88707 14.1026 6.83491C14.7531 6.74142 15.5159 6.83491 16.1354 7.12523C16.3653 7.22561 16.5763 7.35846 16.7331 7.49821Z" fill="white"/>
</g>
<defs>
<clipPath id="clip0_1157_5064">
<rect width="24" height="24" fill="white"/>
</clipPath>
</defs>
</svg>
