<svg xmlns="http://www.w3.org/2000/svg" version="1.1" xmlns:xlink="http://www.w3.org/1999/xlink" xmlns:svgjs="http://svgjs.dev/svgjs" width="1000" height="1000"><g clip-path="url(#SvgjsClipPath1321)"><rect width="1000" height="1000" fill="#ffffff"></rect><g transform="matrix(10,0,0,10,0,0)"><svg xmlns="http://www.w3.org/2000/svg" version="1.1" xmlns:xlink="http://www.w3.org/1999/xlink" xmlns:svgjs="http://svgjs.dev/svgjs" width="100" height="100"><svg width="100" height="100" viewBox="0 0 100 100" fill="none" xmlns="http://www.w3.org/2000/svg">
<path d="M60.4383 48.7314C55.9489 56.7596 54.0707 64.9419 56.3997 73.9353C56.5408 74.478 57.3251 75.0708 57.8913 75.1969C62.3294 76.1722 66.3497 75.2069 69.2229 71.1999C72.1602 67.1027 72.4827 62.4548 70.4524 57.7468C68.5009 53.2211 64.7188 51.0103 60.4401 48.7334L60.4383 48.7314Z" fill="#F5D44A"></path>
<path d="M39.9007 42.3453C39.0963 41.1498 37.8924 39.5518 36.8809 37.8216C33.2967 31.6938 33.2161 26.0747 36.5694 21.9214C40.4834 17.0733 47.584 15.3351 52.9199 18.6413C56.2238 20.6879 59.4195 22.0496 63.2107 22.8086C70.9288 24.3525 73.5767 31.7579 69.4373 39.0551C68.0355 41.5243 66.1316 43.653 64.4769 45.9118C66.2452 47.3196 68.2187 48.6413 69.9265 50.2914C75.7884 55.9565 77.2378 64.5014 73.6665 71.5523C70.1721 78.451 62.8095 81.6952 55.3461 78.8315C50.4645 76.9592 45.9586 77.0032 41.2054 78.8495C37.568 80.2613 33.8977 80.1692 30.2897 78.3689C29.5219 77.9865 28.4518 78.0485 27.5814 78.2408C23.9349 79.0418 22.4452 77.5018 22.9198 73.5568C23.1287 71.8206 23.0389 69.9903 22.8043 68.2481C21.8313 61.049 24.3179 55.1535 29.007 50.5497C32.1899 47.4237 36.0874 45.1669 39.9007 42.3493V42.3453ZM60.4383 48.7314C55.9489 56.7596 54.0707 64.9419 56.3997 73.9353C56.5408 74.478 57.3251 75.0708 57.8913 75.1969C62.3294 76.1722 66.3497 75.2069 69.2229 71.1999C72.1602 67.1027 72.4827 62.4548 70.4524 57.7468C68.5009 53.2211 64.7188 51.0103 60.4401 48.7334L60.4383 48.7314ZM39.3216 48.0005C35.8584 49.5164 33.0292 51.5189 30.8761 54.4586C30.1853 55.4018 29.6484 56.9118 29.7748 58.0652C30.3044 62.9074 32.0305 67.3249 35.0796 70.8975C39.4389 76.0059 38.7756 75.5053 44.6283 73.1103C40.3881 65.4886 38.4622 57.2542 39.3216 48.0005ZM53.4715 41.288C53.5448 41.312 53.3982 41.2639 53.4715 41.288C54.8715 38.3603 55.6502 36.3777 56.3227 32.7572C57.501 26.4151 54.6644 22.1377 48.7805 21.5249C45.0314 21.1344 41.6305 22.2058 39.4243 25.8905C37.3463 29.3609 38.5429 32.7271 40.3936 35.6088C42.3836 38.7047 44.7822 41.5263 47.2285 44.2217C48.9711 46.1421 50.5342 45.8177 52.0532 43.695C52.5883 42.9461 53.0042 42.095 53.4733 41.29L53.4715 41.288ZM60.07 26.6594C60.9899 32.6751 59.0768 37.7795 56.4895 43.5328C58.5546 43.5528 60.5043 44.2057 61.677 43.4407C63.5754 42.1991 65.1348 40.1706 66.5219 38.2081C68.1766 35.8671 69.1642 33.0836 67.5865 30.244C65.9923 27.3743 63.3317 26.6194 60.07 26.6594Z" fill="black"></path>
<path d="M39.3216 48.0005C38.4622 57.2562 40.3881 65.4906 44.6283 73.1103C38.7756 75.5073 39.4389 76.0059 35.0796 70.8975C32.0323 67.3249 30.3062 62.9073 29.7748 58.0652C29.6484 56.9098 30.1834 55.4018 30.8761 54.4586C33.0292 51.5189 35.8566 49.5164 39.3216 48.0005Z" fill="#F5D44A"></path>
<path d="M67.7185 63.2077C66.947 64.4653 65.7376 65.3224 64.0738 64.5534C62.7343 63.9327 62.2909 61.5616 63.2584 60.0117C64.1453 58.5899 65.34 57.5586 67.0533 58.4677C68.5082 59.2387 68.8234 61.1631 67.7166 63.2077H67.7185Z" fill="black"></path>
</svg></svg></g></g><defs><clipPath id="SvgjsClipPath1321"><rect width="1000" height="1000" x="0" y="0" rx="250" ry="250"></rect></clipPath></defs></svg>