<?xml version="1.0" encoding="UTF-8"?>
<svg id="_圖層_1" data-name="圖層 1" xmlns="http://www.w3.org/2000/svg" viewBox="0 0 545.73 449.43">
  <defs>
    <style>
      .cls-1 {
        fill: #f5d44a;
      }
    </style>
  </defs>
  <path class="cls-1" d="M329.83,218.38c-24.5,40.09-34.75,80.95-22.04,125.86,.77,2.71,5.05,5.67,8.14,6.3,24.22,4.87,46.16,.05,61.84-19.96,16.03-20.46,17.79-43.67,6.71-67.18-10.65-22.6-31.29-33.64-54.64-45.01Z"/>
  <path d="M217.75,186.49c-4.39-5.97-10.96-13.95-16.48-22.59-19.56-30.6-20-58.66-1.7-79.4,21.36-24.21,60.11-32.89,89.23-16.38,18.03,10.22,35.47,17.02,56.16,20.81,42.12,7.71,56.57,44.69,33.98,81.13-7.65,12.33-18.04,22.96-27.07,34.24,9.65,7.03,20.42,13.63,29.74,21.87,31.99,28.29,39.9,70.96,20.41,106.17-19.07,34.45-59.25,50.65-99.98,36.35-26.64-9.35-51.23-9.13-77.17,.09-19.85,7.05-39.88,6.59-59.57-2.4-4.19-1.91-10.03-1.6-14.78-.64-19.9,4-28.03-3.69-25.44-23.39,1.14-8.67,.65-17.81-.63-26.51-5.31-35.95,8.26-65.39,33.85-88.38,17.37-15.61,38.64-26.88,59.45-40.95Zm112.08,31.89c-24.5,40.09-34.75,80.95-22.04,125.86,.77,2.71,5.05,5.67,8.14,6.3,24.22,4.87,46.16,.05,61.84-19.96,16.03-20.46,17.79-43.67,6.71-67.18-10.65-22.6-31.29-33.64-54.64-45.01Zm-115.24-3.65c-18.9,7.57-34.34,17.57-46.09,32.25-3.77,4.71-6.7,12.25-6.01,18.01,2.89,24.18,12.31,46.24,28.95,64.08,23.79,25.51,20.17,23.01,52.11,11.05-23.14-38.06-33.65-79.18-28.96-125.39Zm77.22-33.52c.4,.12-.4-.12,0,0,7.64-14.62,11.89-24.52,15.56-42.6,6.43-31.67-9.05-53.03-41.16-56.09-20.46-1.95-39.02,3.4-51.06,21.8-11.34,17.33-4.81,34.14,5.29,48.53,10.86,15.46,23.95,29.55,37.3,43.01,9.51,9.59,18.04,7.97,26.33-2.63,2.92-3.74,5.19-7.99,7.75-12.01Zm36.01-73.05c5.02,30.04-5.42,55.53-19.54,84.26,11.27,.1,21.91,3.36,28.31-.46,10.36-6.2,18.87-16.33,26.44-26.13,9.03-11.69,14.42-25.59,5.81-39.77-8.7-14.33-23.22-18.1-41.02-17.9Z"/>
  <path class="cls-1" d="M214.59,214.73c-4.69,46.22,5.82,87.34,28.96,125.39-31.94,11.97-28.32,14.46-52.11-11.05-16.63-17.84-26.05-39.9-28.95-64.08-.69-5.77,2.23-13.3,6.01-18.01,11.75-14.68,27.18-24.68,46.09-32.25Z"/>
  <path d="M369.56,290.67c-4.21,6.28-10.81,10.56-19.89,6.72-7.31-3.1-9.73-14.94-4.45-22.68,4.84-7.1,11.36-12.25,20.71-7.71,7.94,3.85,9.66,13.46,3.62,23.67Z"/>
</svg>