<svg width="440" height="180" viewBox="0 0 440 180" fill="none" xmlns="http://www.w3.org/2000/svg">
<rect width="440" height="180" rx="15" fill="#00D1A0"/>
<path d="M113.248 68.568C113.248 77.4427 109.408 84.184 101.728 88.792C105.909 90.328 109.408 92.9733 112.224 96.728C115.04 100.483 116.448 105.816 116.448 112.728C116.448 119.555 113.888 124.973 108.768 128.984C103.733 132.995 96.48 135 87.008 135H56.8C55.3493 135 54.1547 134.531 53.216 133.592C52.2773 132.568 51.808 131.245 51.808 129.624V47.704C51.808 46.7653 51.936 46.168 52.192 45.912C52.5333 45.5707 53.1733 45.4 54.112 45.4H83.296C103.264 45.4 113.248 53.1227 113.248 68.568ZM76.384 66.136V82.904H77.024C85.216 82.904 89.312 80.1733 89.312 74.712C89.312 71.7253 88.5013 69.5493 86.88 68.184C85.344 66.8187 82.7413 66.136 79.072 66.136H76.384ZM76.384 98.008V114.648H78.688C82.3573 114.648 85.0453 113.965 86.752 112.6C88.4587 111.235 89.312 109.059 89.312 106.072C89.312 103.085 88.5013 100.995 86.88 99.8C85.344 98.6053 82.7413 98.008 79.072 98.008H76.384ZM168 80.984C169.621 80.984 170.432 83.9707 170.432 89.944C170.432 91.736 170.219 93.8693 169.792 96.344C169.451 98.7333 168.768 99.928 167.744 99.928H151.488V112.728H175.04C176.491 112.728 177.472 114.605 177.984 118.36C178.24 119.981 178.368 121.731 178.368 123.608C178.368 125.4 178.112 127.747 177.6 130.648C177.088 133.549 176.235 135 175.04 135H131.264C128.021 135 126.4 133.677 126.4 131.032V48.728C126.4 46.5093 127.381 45.4 129.344 45.4H175.168C176.96 45.4 177.856 49.1973 177.856 56.792C177.856 64.3013 176.96 68.056 175.168 68.056H151.488V80.984H168ZM231.381 47.96C231.381 46.2533 235.989 45.4 245.205 45.4C254.506 45.4 259.157 46.2533 259.157 47.96V106.712C259.157 115.416 256.042 122.541 249.813 128.088C243.584 133.549 234.965 136.28 223.957 136.28C213.034 136.28 204.117 133.464 197.205 127.832C190.378 122.115 186.965 114.435 186.965 104.792V48.088C186.965 46.3813 191.573 45.528 200.789 45.528C210.09 45.528 214.741 46.3813 214.741 48.088V105.816C214.741 107.523 215.637 108.888 217.429 109.912C219.306 110.936 221.269 111.448 223.317 111.448C225.365 111.448 227.2 110.979 228.821 110.04C230.528 109.101 231.381 107.693 231.381 105.816V47.96ZM294.348 133.208C294.348 134.573 290.295 135.256 282.188 135.256C273.996 135.256 269.9 134.616 269.9 133.336V49.88C269.9 46.8933 271.479 45.4 274.636 45.4H299.084C321.527 45.4 332.748 54.1467 332.748 71.64C332.748 76.9307 331.724 81.752 329.676 86.104C327.628 90.3707 324.727 93.784 320.972 96.344L337.1 123.224C336.417 125.272 334.199 127.619 330.444 130.264C325.324 133.933 321.1 135.768 317.772 135.768C314.444 135.768 311.969 134.573 310.348 132.184L298.316 104.152H294.348V133.208ZM294.348 68.056V87.256H294.988C303.095 87.256 307.148 83.8853 307.148 77.144C307.148 74.072 306.337 71.8107 304.716 70.36C303.18 68.824 300.62 68.056 297.036 68.056H294.348ZM344.12 127.448V47.832C344.12 46.04 348.429 45.144 357.048 45.144C365.752 45.144 370.104 46.04 370.104 47.832V110.552H389.816C391.352 110.552 392.419 112.557 393.016 116.568C393.272 118.531 393.4 120.536 393.4 122.584C393.4 124.632 393.272 126.723 393.016 128.856C392.333 132.952 391.224 135 389.688 135H350.264C348.387 135 346.893 134.232 345.784 132.696C344.675 131.16 344.12 129.411 344.12 127.448Z" fill="white"/>
</svg>
