<svg width="546" height="450" viewBox="0 0 546 450" fill="none" xmlns="http://www.w3.org/2000/svg">
<path d="M217.75 186.49C213.36 180.52 206.79 172.54 201.27 163.9C181.71 133.3 181.27 105.24 199.57 84.4999C220.93 60.2899 259.68 51.6099 288.8 68.1199C306.83 78.3399 324.27 85.1399 344.96 88.9299C387.08 96.6399 401.53 133.62 378.94 170.06C371.29 182.39 360.9 193.02 351.87 204.3C361.52 211.33 372.29 217.93 381.61 226.17C413.6 254.46 421.51 297.13 402.02 332.34C382.95 366.79 342.77 382.99 302.04 368.69C275.4 359.34 250.81 359.56 224.87 368.78C205.02 375.83 184.99 375.37 165.3 366.38C161.11 364.47 155.27 364.78 150.52 365.74C130.62 369.74 122.49 362.05 125.08 342.35C126.22 333.68 125.73 324.54 124.45 315.84C119.14 279.89 132.71 250.45 158.3 227.46C175.67 211.85 196.94 200.58 217.75 186.51V186.49ZM329.83 218.38C305.33 258.47 295.08 299.33 307.79 344.24C308.56 346.95 312.84 349.91 315.93 350.54C340.15 355.41 362.09 350.59 377.77 330.58C393.8 310.12 395.56 286.91 384.48 263.4C373.83 240.8 353.19 229.76 329.84 218.39L329.83 218.38ZM214.59 214.73C195.69 222.3 180.25 232.3 168.5 246.98C164.73 251.69 161.8 259.23 162.49 264.99C165.38 289.17 174.8 311.23 191.44 329.07C215.23 354.58 211.61 352.08 243.55 340.12C220.41 302.06 209.9 260.94 214.59 214.73ZM291.81 181.21C292.21 181.33 291.41 181.09 291.81 181.21C299.45 166.59 303.7 156.69 307.37 138.61C313.8 106.94 298.32 85.5799 266.21 82.5199C245.75 80.5699 227.19 85.9199 215.15 104.32C203.81 121.65 210.34 138.46 220.44 152.85C231.3 168.31 244.39 182.4 257.74 195.86C267.25 205.45 275.78 203.83 284.07 193.23C286.99 189.49 289.26 185.24 291.82 181.22L291.81 181.21ZM327.82 108.16C332.84 138.2 322.4 163.69 308.28 192.42C319.55 192.52 330.19 195.78 336.59 191.96C346.95 185.76 355.46 175.63 363.03 165.83C372.06 154.14 377.45 140.24 368.84 126.06C360.14 111.73 345.62 107.96 327.82 108.16Z" fill="black"/>
<path d="M340.774 289.824L370.871 277.875M350.959 268.34L363.359 299.572" stroke="black" stroke-width="12" stroke-linecap="round"/>
</svg>
